<?xml version="1.0" encoding="UTF-8" standalone="no"?>
<!DOCTYPE svg PUBLIC "-//W3C//DTD SVG 1.1//EN"
 "http://www.w3.org/Graphics/SVG/1.1/DTD/svg11.dtd">
<!-- Generated by graphviz version 15.1.0 (20260618.0150)
 -->
<!-- Title: G Pages: 1 -->
<svg width="396pt" height="291pt"
 viewBox="0.00 0.00 396.00 291.00" xmlns="http://www.w3.org/2000/svg" xmlns:xlink="http://www.w3.org/1999/xlink">
<g id="graph0" class="graph" transform="scale(1 1) rotate(0) translate(21.6 269.8)">
<title>G</title>
<polygon fill="white" stroke="none" points="-21.6,21.6 -21.6,-269.8 374.28,-269.8 374.28,21.6 -21.6,21.6"/>
<text xml:space="preserve" text-anchor="middle" x="176.34" y="-229.95" font-family="Microsoft YaHei" font-size="15.00" fill="#2c5f8a">软件工程 3.0 的定义与五大特征</text>
<!-- hub -->
<g id="node1" class="node">
<title>hub</title>
<path fill="#2c5f8a" stroke="#2c5f8a" stroke-width="1.3" d="M222.43,-131.8C222.43,-131.8 118.63,-131.8 118.63,-131.8 112.63,-131.8 106.63,-125.8 106.63,-119.8 106.63,-119.8 106.63,-99.4 106.63,-99.4 106.63,-93.4 112.63,-87.4 118.63,-87.4 118.63,-87.4 222.43,-87.4 222.43,-87.4 228.43,-87.4 234.43,-93.4 234.43,-99.4 234.43,-99.4 234.43,-119.8 234.43,-119.8 234.43,-125.8 228.43,-131.8 222.43,-131.8"/>
<text xml:space="preserve" text-anchor="middle" x="170.53" y="-114.15" font-family="Microsoft YaHei" font-size="11.00" fill="white">软件工程 3.0</text>
<text xml:space="preserve" text-anchor="middle" x="170.53" y="-99.15" font-family="Microsoft YaHei" font-size="11.00" fill="white">意图中心 · 对话导向</text>
</g>
<!-- f3 -->
<g id="node4" class="node">
<title>f3</title>
<path fill="#dce9f7" stroke="#2c5f8a" stroke-width="1.3" d="M73.05,-44.4C73.05,-44.4 12,-44.4 12,-44.4 6,-44.4 0,-38.4 0,-32.4 0,-32.4 0,-12 0,-12 0,-6 6,0 12,0 12,0 73.05,0 73.05,0 79.05,0 85.05,-6 85.05,-12 85.05,-12 85.05,-32.4 85.05,-32.4 85.05,-38.4 79.05,-44.4 73.05,-44.4"/>
<text xml:space="preserve" text-anchor="middle" x="42.53" y="-26.75" font-family="Microsoft YaHei" font-size="11.00" fill="#333333">软件即模型</text>
<text xml:space="preserve" text-anchor="middle" x="42.53" y="-11.75" font-family="Microsoft YaHei" font-size="11.00" fill="#333333">复合构成</text>
</g>
<!-- hub&#45;&gt;f3 -->
<g id="edge3" class="edge">
<title>hub&#45;&gt;f3</title>
<path fill="none" stroke="#9aa7b4" stroke-width="1.2" d="M117.31,-87.04C117.31,-61.09 117.31,-22 117.31,-22 117.31,-22 95.41,-22 95.41,-22"/>
<polygon fill="#9aa7b4" stroke="#9aa7b4" stroke-width="1.2" points="95.41,-19.2 87.41,-22 95.41,-24.8 95.41,-19.2"/>
</g>
<!-- f4 -->
<g id="node5" class="node">
<title>f4</title>
<path fill="#dce9f7" stroke="#2c5f8a" stroke-width="1.3" d="M201.05,-44.4C201.05,-44.4 140,-44.4 140,-44.4 134,-44.4 128,-38.4 128,-32.4 128,-32.4 128,-12 128,-12 128,-6 134,0 140,0 140,0 201.05,0 201.05,0 207.05,0 213.05,-6 213.05,-12 213.05,-12 213.05,-32.4 213.05,-32.4 213.05,-38.4 207.05,-44.4 201.05,-44.4"/>
<text xml:space="preserve" text-anchor="middle" x="170.53" y="-26.75" font-family="Microsoft YaHei" font-size="11.00" fill="#333333">验证即回归</text>
<text xml:space="preserve" text-anchor="middle" x="170.53" y="-11.75" font-family="Microsoft YaHei" font-size="11.00" fill="#333333">评测集把关</text>
</g>
<!-- hub&#45;&gt;f4 -->
<g id="edge4" class="edge">
<title>hub&#45;&gt;f4</title>
<path fill="none" stroke="#9aa7b4" stroke-width="1.2" d="M170.53,-87.09C170.53,-87.09 170.53,-54.75 170.53,-54.75"/>
<polygon fill="#9aa7b4" stroke="#9aa7b4" stroke-width="1.2" points="173.33,-54.75 170.53,-46.75 167.73,-54.75 173.33,-54.75"/>
</g>
<!-- f5 -->
<g id="node6" class="node">
<title>f5</title>
<path fill="#dce9f7" stroke="#2c5f8a" stroke-width="1.3" d="M340.67,-44.4C340.67,-44.4 268.38,-44.4 268.38,-44.4 262.38,-44.4 256.38,-38.4 256.38,-32.4 256.38,-32.4 256.38,-12 256.38,-12 256.38,-6 262.38,0 268.38,0 268.38,0 340.67,0 340.67,0 346.67,0 352.67,-6 352.67,-12 352.67,-12 352.67,-32.4 352.67,-32.4 352.67,-38.4 346.67,-44.4 340.67,-44.4"/>
<text xml:space="preserve" text-anchor="middle" x="304.52" y="-26.75" font-family="Microsoft YaHei" font-size="11.00" fill="#333333">自主程度递增</text>
<text xml:space="preserve" text-anchor="middle" x="304.52" y="-11.75" font-family="Microsoft YaHei" font-size="11.00" fill="#333333">从助手到自主</text>
</g>
<!-- hub&#45;&gt;f5 -->
<g id="edge5" class="edge">
<title>hub&#45;&gt;f5</title>
<path fill="none" stroke="#9aa7b4" stroke-width="1.2" d="M223.74,-87.04C223.74,-61.09 223.74,-22 223.74,-22 223.74,-22 246.32,-22 246.32,-22"/>
<polygon fill="#9aa7b4" stroke="#9aa7b4" stroke-width="1.2" points="246.32,-24.8 254.32,-22 246.32,-19.2 246.32,-24.8"/>
</g>
<!-- f1 -->
<g id="node2" class="node">
<title>f1</title>
<path fill="#dce9f7" stroke="#2c5f8a" stroke-width="1.3" d="M134.3,-219.2C134.3,-219.2 50.75,-219.2 50.75,-219.2 44.75,-219.2 38.75,-213.2 38.75,-207.2 38.75,-207.2 38.75,-186.8 38.75,-186.8 38.75,-180.8 44.75,-174.8 50.75,-174.8 50.75,-174.8 134.3,-174.8 134.3,-174.8 140.3,-174.8 146.3,-180.8 146.3,-186.8 146.3,-186.8 146.3,-207.2 146.3,-207.2 146.3,-213.2 140.3,-219.2 134.3,-219.2"/>
<text xml:space="preserve" text-anchor="middle" x="92.53" y="-201.55" font-family="Microsoft YaHei" font-size="11.00" fill="#333333">大模型为构建块</text>
<text xml:space="preserve" text-anchor="middle" x="92.53" y="-186.55" font-family="Microsoft YaHei" font-size="11.00" fill="#333333">生成与推理能力</text>
</g>
<!-- f1&#45;&gt;hub -->
<g id="edge1" class="edge">
<title>f1&#45;&gt;hub</title>
<path fill="none" stroke="#9aa7b4" stroke-width="1.2" d="M126.46,-174.49C126.46,-174.49 126.46,-142.15 126.46,-142.15"/>
<polygon fill="#9aa7b4" stroke="#9aa7b4" stroke-width="1.2" points="129.26,-142.15 126.46,-134.15 123.66,-142.15 129.26,-142.15"/>
</g>
<!-- f2 -->
<g id="node3" class="node">
<title>f2</title>
<path fill="#dce9f7" stroke="#2c5f8a" stroke-width="1.3" d="M295.93,-219.2C295.93,-219.2 201.12,-219.2 201.12,-219.2 195.12,-219.2 189.12,-213.2 189.12,-207.2 189.12,-207.2 189.12,-186.8 189.12,-186.8 189.12,-180.8 195.12,-174.8 201.12,-174.8 201.12,-174.8 295.93,-174.8 295.93,-174.8 301.93,-174.8 307.93,-180.8 307.93,-186.8 307.93,-186.8 307.93,-207.2 307.93,-207.2 307.93,-213.2 301.93,-219.2 295.93,-219.2"/>
<text xml:space="preserve" text-anchor="middle" x="248.53" y="-201.55" font-family="Microsoft YaHei" font-size="11.00" fill="#333333">自然语言一等公民</text>
<text xml:space="preserve" text-anchor="middle" x="248.53" y="-186.55" font-family="Microsoft YaHei" font-size="11.00" fill="#333333">意图与对话</text>
</g>
<!-- f2&#45;&gt;hub -->
<g id="edge2" class="edge">
<title>f2&#45;&gt;hub</title>
<path fill="none" stroke="#9aa7b4" stroke-width="1.2" d="M211.78,-174.49C211.78,-174.49 211.78,-142.15 211.78,-142.15"/>
<polygon fill="#9aa7b4" stroke="#9aa7b4" stroke-width="1.2" points="214.58,-142.15 211.78,-134.15 208.98,-142.15 214.58,-142.15"/>
</g>
</g>
</svg>
