<?xml version="1.0" encoding="UTF-8" standalone="no"?>
<!DOCTYPE svg PUBLIC "-//W3C//DTD SVG 1.1//EN"
 "http://www.w3.org/Graphics/SVG/1.1/DTD/svg11.dtd">
<!-- Generated by graphviz version 15.1.0 (20260618.0150)
 -->
<!-- Title: G Pages: 1 -->
<svg width="721pt" height="341pt"
 viewBox="0.00 0.00 721.00 341.00" xmlns="http://www.w3.org/2000/svg" xmlns:xlink="http://www.w3.org/1999/xlink">
<g id="graph0" class="graph" transform="scale(1 1) rotate(0) translate(21.6 319.8)">
<title>G</title>
<polygon fill="white" stroke="none" points="-21.6,21.6 -21.6,-319.8 699.02,-319.8 699.02,21.6 -21.6,21.6"/>
<text xml:space="preserve" text-anchor="middle" x="338.71" y="-279.95" font-family="Microsoft YaHei" font-size="15.00" fill="#2c5f8a">AI 辅助事件风暴与 DDD 建模</text>
<!-- A -->
<g id="node1" class="node">
<title>A</title>
<path fill="#dce9f7" stroke="#2c5f8a" stroke-width="1.3" d="M138.3,-269.2C138.3,-269.2 12,-269.2 12,-269.2 6,-269.2 0,-263.2 0,-257.2 0,-257.2 0,-236.8 0,-236.8 0,-230.8 6,-224.8 12,-224.8 12,-224.8 138.3,-224.8 138.3,-224.8 144.3,-224.8 150.3,-230.8 150.3,-236.8 150.3,-236.8 150.3,-257.2 150.3,-257.2 150.3,-263.2 144.3,-269.2 138.3,-269.2"/>
<text xml:space="preserve" text-anchor="middle" x="75.15" y="-251.55" font-family="Microsoft YaHei" font-size="11.00" fill="#333333">业务叙事与用户旅程</text>
<text xml:space="preserve" text-anchor="middle" x="75.15" y="-236.55" font-family="Microsoft YaHei" font-size="11.00" fill="#333333">（访谈/文档/现场观察）</text>
</g>
<!-- B -->
<g id="node2" class="node">
<title>B</title>
<path fill="#dce9f7" stroke="#2c5f8a" stroke-width="1.3" d="M314.3,-269.2C314.3,-269.2 194,-269.2 194,-269.2 188,-269.2 182,-263.2 182,-257.2 182,-257.2 182,-236.8 182,-236.8 182,-230.8 188,-224.8 194,-224.8 194,-224.8 314.3,-224.8 314.3,-224.8 320.3,-224.8 326.3,-230.8 326.3,-236.8 326.3,-236.8 326.3,-257.2 326.3,-257.2 326.3,-263.2 320.3,-269.2 314.3,-269.2"/>
<text xml:space="preserve" text-anchor="middle" x="254.15" y="-251.55" font-family="Microsoft YaHei" font-size="11.00" fill="#333333">识别领域事件</text>
<text xml:space="preserve" text-anchor="middle" x="254.15" y="-236.55" font-family="Microsoft YaHei" font-size="11.00" fill="#333333">（LLM 自动枚举候选）</text>
</g>
<!-- A&#45;&gt;B -->
<g id="edge1" class="edge">
<title>A&#45;&gt;B</title>
<path fill="none" stroke="#9aa7b4" stroke-width="1.2" d="M150.8,-247C150.8,-247 171.81,-247 171.81,-247"/>
<polygon fill="#9aa7b4" stroke="#9aa7b4" stroke-width="1.2" points="171.81,-249.8 179.81,-247 171.81,-244.2 171.81,-249.8"/>
</g>
<!-- C -->
<g id="node3" class="node">
<title>C</title>
<path fill="#dce9f7" stroke="#2c5f8a" stroke-width="1.3" d="M284.68,-156.8C284.68,-156.8 223.62,-156.8 223.62,-156.8 217.62,-156.8 211.62,-150.8 211.62,-144.8 211.62,-144.8 211.62,-124.4 211.62,-124.4 211.62,-118.4 217.62,-112.4 223.62,-112.4 223.62,-112.4 284.68,-112.4 284.68,-112.4 290.68,-112.4 296.68,-118.4 296.68,-124.4 296.68,-124.4 296.68,-144.8 296.68,-144.8 296.68,-150.8 290.68,-156.8 284.68,-156.8"/>
<text xml:space="preserve" text-anchor="middle" x="254.15" y="-139.15" font-family="Microsoft YaHei" font-size="11.00" fill="#333333">按时间排序</text>
<text xml:space="preserve" text-anchor="middle" x="254.15" y="-124.15" font-family="Microsoft YaHei" font-size="11.00" fill="#333333">形成事件流</text>
</g>
<!-- B&#45;&gt;C -->
<g id="edge2" class="edge">
<title>B&#45;&gt;C</title>
<path fill="none" stroke="#9aa7b4" stroke-width="1.2" d="M254.15,-224.25C254.15,-224.25 254.15,-167.13 254.15,-167.13"/>
<polygon fill="#9aa7b4" stroke="#9aa7b4" stroke-width="1.2" points="256.95,-167.13 254.15,-159.13 251.35,-167.13 256.95,-167.13"/>
</g>
<!-- D -->
<g id="node4" class="node">
<title>D</title>
<path fill="#dce9f7" stroke="#2c5f8a" stroke-width="1.3" d="M480.05,-156.8C480.05,-156.8 340.25,-156.8 340.25,-156.8 334.25,-156.8 328.25,-150.8 328.25,-144.8 328.25,-144.8 328.25,-124.4 328.25,-124.4 328.25,-118.4 334.25,-112.4 340.25,-112.4 340.25,-112.4 480.05,-112.4 480.05,-112.4 486.05,-112.4 492.05,-118.4 492.05,-124.4 492.05,-124.4 492.05,-144.8 492.05,-144.8 492.05,-150.8 486.05,-156.8 480.05,-156.8"/>
<text xml:space="preserve" text-anchor="middle" x="410.15" y="-139.15" font-family="Microsoft YaHei" font-size="11.00" fill="#333333">聚合与限界上下文</text>
<text xml:space="preserve" text-anchor="middle" x="410.15" y="-124.15" font-family="Microsoft YaHei" font-size="11.00" fill="#333333">（把相关事件与实体分组）</text>
</g>
<!-- C&#45;&gt;D -->
<g id="edge3" class="edge">
<title>C&#45;&gt;D</title>
<path fill="none" stroke="#9aa7b4" stroke-width="1.2" d="M297.19,-135C297.19,-135 317.93,-135 317.93,-135"/>
<polygon fill="#9aa7b4" stroke="#9aa7b4" stroke-width="1.2" points="317.93,-137.8 325.93,-135 317.93,-132.2 317.93,-137.8"/>
</g>
<!-- E -->
<g id="node5" class="node">
<title>E</title>
<path fill="#dce9f7" stroke="#2c5f8a" stroke-width="1.3" d="M474.42,-44.4C474.42,-44.4 345.88,-44.4 345.88,-44.4 339.88,-44.4 333.88,-38.4 333.88,-32.4 333.88,-32.4 333.88,-12 333.88,-12 333.88,-6 339.88,0 345.88,0 345.88,0 474.42,0 474.42,0 480.42,0 486.42,-6 486.42,-12 486.42,-12 486.42,-32.4 486.42,-32.4 486.42,-38.4 480.42,-44.4 474.42,-44.4"/>
<text xml:space="preserve" text-anchor="middle" x="410.15" y="-26.75" font-family="Microsoft YaHei" font-size="11.00" fill="#333333">上下文映射</text>
<text xml:space="preserve" text-anchor="middle" x="410.15" y="-11.75" font-family="Microsoft YaHei" font-size="11.00" fill="#333333">（团队边界与协作关系）</text>
</g>
<!-- D&#45;&gt;E -->
<g id="edge4" class="edge">
<title>D&#45;&gt;E</title>
<path fill="none" stroke="#9aa7b4" stroke-width="1.2" d="M410.15,-111.85C410.15,-111.85 410.15,-54.73 410.15,-54.73"/>
<polygon fill="#9aa7b4" stroke="#9aa7b4" stroke-width="1.2" points="412.95,-54.73 410.15,-46.73 407.35,-54.73 412.95,-54.73"/>
</g>
<!-- F -->
<g id="node6" class="node">
<title>F</title>
<path fill="#2c5f8a" stroke="#2c5f8a" stroke-width="1.3" d="M665.42,-44.4C665.42,-44.4 530.88,-44.4 530.88,-44.4 524.88,-44.4 518.88,-38.4 518.88,-32.4 518.88,-32.4 518.88,-12 518.88,-12 518.88,-6 524.88,0 530.88,0 530.88,0 665.42,0 665.42,0 671.42,0 677.42,-6 677.42,-12 677.42,-12 677.42,-32.4 677.42,-32.4 677.42,-38.4 671.42,-44.4 665.42,-44.4"/>
<text xml:space="preserve" text-anchor="middle" x="598.15" y="-26.75" font-family="Microsoft YaHei" font-size="11.00" fill="white">模型驱动设计</text>
<text xml:space="preserve" text-anchor="middle" x="598.15" y="-11.75" font-family="Microsoft YaHei" font-size="11.00" fill="white">（实体·值对象·领域服务）</text>
</g>
<!-- E&#45;&gt;F -->
<g id="edge5" class="edge">
<title>E&#45;&gt;F</title>
<path fill="none" stroke="#9aa7b4" stroke-width="1.2" d="M486.89,-22C486.89,-22 508.48,-22 508.48,-22"/>
<polygon fill="#9aa7b4" stroke="#9aa7b4" stroke-width="1.2" points="508.48,-24.8 516.48,-22 508.48,-19.2 508.48,-24.8"/>
</g>
</g>
</svg>
