<?xml version="1.0" encoding="UTF-8" standalone="no"?>
<!DOCTYPE svg PUBLIC "-//W3C//DTD SVG 1.1//EN"
 "http://www.w3.org/Graphics/SVG/1.1/DTD/svg11.dtd">
<!-- Generated by graphviz version 15.1.0 (20260618.0150)
 -->
<!-- Title: G Pages: 1 -->
<svg width="777pt" height="355pt"
 viewBox="0.00 0.00 777.00 355.00" xmlns="http://www.w3.org/2000/svg" xmlns:xlink="http://www.w3.org/1999/xlink">
<g id="graph0" class="graph" transform="scale(1 1) rotate(0) translate(21.6 333.06)">
<title>G</title>
<polygon fill="white" stroke="none" points="-21.6,21.6 -21.6,-333.06 755.6,-333.06 755.6,21.6 -21.6,21.6"/>
<text xml:space="preserve" text-anchor="middle" x="367" y="-293.21" font-family="Microsoft YaHei" font-size="15.00" fill="#2c5f8a">LLM 应用的分层架构</text>
<g id="clust1" class="cluster">
<title>cluster_app</title>
<path fill="white" stroke="#4a90d9" stroke-dasharray="5,2" d="M20,-188C20,-188 319,-188 319,-188 325,-188 331,-194 331,-200 331,-200 331,-262.46 331,-262.46 331,-268.46 325,-274.46 319,-274.46 319,-274.46 20,-274.46 20,-274.46 14,-274.46 8,-268.46 8,-262.46 8,-262.46 8,-200 8,-200 8,-194 14,-188 20,-188"/>
<text xml:space="preserve" text-anchor="middle" x="169.5" y="-256.21" font-family="Microsoft YaHei" font-size="15.00" fill="#2c5f8a">应用层</text>
</g>
<g id="clust3" class="cluster">
<title>cluster_orch</title>
<path fill="white" stroke="#4a90d9" stroke-dasharray="5,2" d="M197,-99C197,-99 505,-99 505,-99 511,-99 517,-105 517,-111 517,-111 517,-168 517,-168 517,-174 511,-180 505,-180 505,-180 197,-180 197,-180 191,-180 185,-174 185,-168 185,-168 185,-111 185,-111 185,-105 191,-99 197,-99"/>
<text xml:space="preserve" text-anchor="middle" x="351" y="-161.75" font-family="Microsoft YaHei" font-size="15.00" fill="#2c5f8a">编排层</text>
</g>
<g id="clust5" class="cluster">
<title>cluster_model</title>
<path fill="white" stroke="#4a90d9" stroke-dasharray="5,2" d="M428,-10C428,-10 714,-10 714,-10 720,-10 726,-16 726,-22 726,-22 726,-79 726,-79 726,-85 720,-91 714,-91 714,-91 428,-91 428,-91 422,-91 416,-85 416,-79 416,-79 416,-22 416,-22 416,-16 422,-10 428,-10"/>
<text xml:space="preserve" text-anchor="middle" x="571" y="-72.75" font-family="Microsoft YaHei" font-size="15.00" fill="#2c5f8a">模型层</text>
</g>
<g id="clust7" class="cluster">
<title>cluster_data</title>
<path fill="white" stroke="#4a90d9" stroke-dasharray="5,2" d="M364,-188C364,-188 656,-188 656,-188 662,-188 668,-194 668,-200 668,-200 668,-262.46 668,-262.46 668,-268.46 662,-274.46 656,-274.46 656,-274.46 364,-274.46 364,-274.46 358,-274.46 352,-268.46 352,-262.46 352,-262.46 352,-200 352,-200 352,-194 358,-188 364,-188"/>
<text xml:space="preserve" text-anchor="middle" x="510" y="-256.21" font-family="Microsoft YaHei" font-size="15.00" fill="#2c5f8a">数据与工具层</text>
</g>
<!-- ui -->
<g id="node1" class="node">
<title>ui</title>
<path fill="#dce9f7" stroke="#2c5f8a" stroke-width="1.3" d="M67.8,-234.73C67.8,-234.73 28.2,-234.73 28.2,-234.73 22.2,-234.73 16.2,-228.73 16.2,-222.73 16.2,-222.73 16.2,-210.73 16.2,-210.73 16.2,-204.73 22.2,-198.73 28.2,-198.73 28.2,-198.73 67.8,-198.73 67.8,-198.73 73.8,-198.73 79.8,-204.73 79.8,-210.73 79.8,-210.73 79.8,-222.73 79.8,-222.73 79.8,-228.73 73.8,-234.73 67.8,-234.73"/>
<text xml:space="preserve" text-anchor="middle" x="48" y="-213.88" font-family="Microsoft YaHei" font-size="10.50" fill="#333333">对话界面</text>
</g>
<!-- prompt -->
<g id="node4" class="node">
<title>prompt</title>
<path fill="#dce9f7" stroke="#2c5f8a" stroke-width="1.3" d="M255.05,-143C255.05,-143 204.95,-143 204.95,-143 198.95,-143 192.95,-137 192.95,-131 192.95,-131 192.95,-119 192.95,-119 192.95,-113 198.95,-107 204.95,-107 204.95,-107 255.05,-107 255.05,-107 261.05,-107 267.05,-113 267.05,-119 267.05,-119 267.05,-131 267.05,-131 267.05,-137 261.05,-143 255.05,-143"/>
<text xml:space="preserve" text-anchor="middle" x="230" y="-122.15" font-family="Microsoft YaHei" font-size="10.50" fill="#333333">提示词组装</text>
</g>
<!-- ui&#45;&gt;prompt -->
<g id="edge1" class="edge">
<title>ui&#45;&gt;prompt</title>
<path fill="none" stroke="#9aa7b4" stroke-width="1.2" d="M48,-198.17C48,-171.36 48,-125 48,-125 48,-125 182.91,-125 182.91,-125"/>
<polygon fill="#9aa7b4" stroke="#9aa7b4" stroke-width="1.2" points="182.91,-127.8 190.91,-125 182.91,-122.2 182.91,-127.8"/>
</g>
<!-- biz -->
<g id="node2" class="node">
<title>biz</title>
<path fill="#dce9f7" stroke="#2c5f8a" stroke-width="1.3" d="M188.3,-234.73C188.3,-234.73 127.7,-234.73 127.7,-234.73 121.7,-234.73 115.7,-228.73 115.7,-222.73 115.7,-222.73 115.7,-210.73 115.7,-210.73 115.7,-204.73 121.7,-198.73 127.7,-198.73 127.7,-198.73 188.3,-198.73 188.3,-198.73 194.3,-198.73 200.3,-204.73 200.3,-210.73 200.3,-210.73 200.3,-222.73 200.3,-222.73 200.3,-228.73 194.3,-234.73 188.3,-234.73"/>
<text xml:space="preserve" text-anchor="middle" x="158" y="-213.88" font-family="Microsoft YaHei" font-size="10.50" fill="#333333">业务系统接入</text>
</g>
<!-- biz&#45;&gt;prompt -->
<g id="edge2" class="edge">
<title>biz&#45;&gt;prompt</title>
<path fill="none" stroke="#9aa7b4" stroke-width="1.2" d="M196.62,-198.17C196.62,-198.17 196.62,-153.35 196.62,-153.35"/>
<polygon fill="#9aa7b4" stroke="#9aa7b4" stroke-width="1.2" points="199.43,-153.35 196.63,-145.35 193.83,-153.35 199.43,-153.35"/>
</g>
<!-- gov -->
<g id="node3" class="node">
<title>gov</title>
<path fill="#dce9f7" stroke="#2c5f8a" stroke-width="1.3" d="M311.43,-237.46C311.43,-237.46 248.57,-237.46 248.57,-237.46 242.57,-237.46 236.57,-231.46 236.57,-225.46 236.57,-225.46 236.57,-208 236.57,-208 236.57,-202 242.57,-196 248.57,-196 248.57,-196 311.43,-196 311.43,-196 317.43,-196 323.43,-202 323.43,-208 323.43,-208 323.43,-225.46 323.43,-225.46 323.43,-231.46 317.43,-237.46 311.43,-237.46"/>
<text xml:space="preserve" text-anchor="middle" x="280" y="-221.01" font-family="Microsoft YaHei" font-size="10.50" fill="#333333">治理入口</text>
<text xml:space="preserve" text-anchor="middle" x="280" y="-206.76" font-family="Microsoft YaHei" font-size="10.50" fill="#333333">（审批·审计）</text>
</g>
<!-- gov&#45;&gt;prompt -->
<g id="edge3" class="edge">
<title>gov&#45;&gt;prompt</title>
<path fill="none" stroke="#9aa7b4" stroke-width="1.2" d="M251.81,-195.45C251.81,-195.45 251.81,-153.19 251.81,-153.19"/>
<polygon fill="#9aa7b4" stroke="#9aa7b4" stroke-width="1.2" points="254.61,-153.19 251.81,-145.19 249.01,-153.19 254.61,-153.19"/>
</g>
<!-- route -->
<g id="node5" class="node">
<title>route</title>
<path fill="#dce9f7" stroke="#2c5f8a" stroke-width="1.3" d="M365.05,-143C365.05,-143 314.95,-143 314.95,-143 308.95,-143 302.95,-137 302.95,-131 302.95,-131 302.95,-119 302.95,-119 302.95,-113 308.95,-107 314.95,-107 314.95,-107 365.05,-107 365.05,-107 371.05,-107 377.05,-113 377.05,-119 377.05,-119 377.05,-131 377.05,-131 377.05,-137 371.05,-143 365.05,-143"/>
<text xml:space="preserve" text-anchor="middle" x="340" y="-122.15" font-family="Microsoft YaHei" font-size="10.50" fill="#333333">路由与缓存</text>
</g>
<!-- prompt&#45;&gt;route -->
<g id="edge4" class="edge">
<title>prompt&#45;&gt;route</title>
<path fill="none" stroke="#9aa7b4" stroke-width="1.2" d="M267.55,-125C267.55,-125 292.8,-125 292.8,-125"/>
<polygon fill="#9aa7b4" stroke="#9aa7b4" stroke-width="1.2" points="292.8,-127.8 300.8,-125 292.8,-122.2 292.8,-127.8"/>
</g>
<!-- retr -->
<g id="node6" class="node">
<title>retr</title>
<path fill="#dce9f7" stroke="#2c5f8a" stroke-width="1.3" d="M496.55,-143C496.55,-143 425.45,-143 425.45,-143 419.45,-143 413.45,-137 413.45,-131 413.45,-131 413.45,-119 413.45,-119 413.45,-113 419.45,-107 425.45,-107 425.45,-107 496.55,-107 496.55,-107 502.55,-107 508.55,-113 508.55,-119 508.55,-119 508.55,-131 508.55,-131 508.55,-137 502.55,-143 496.55,-143"/>
<text xml:space="preserve" text-anchor="middle" x="461" y="-122.15" font-family="Microsoft YaHei" font-size="10.50" fill="#333333">检索与工具调用</text>
</g>
<!-- route&#45;&gt;retr -->
<g id="edge5" class="edge">
<title>route&#45;&gt;retr</title>
<path fill="none" stroke="#9aa7b4" stroke-width="1.2" d="M377.62,-125C377.62,-125 403.32,-125 403.32,-125"/>
<polygon fill="#9aa7b4" stroke="#9aa7b4" stroke-width="1.2" points="403.32,-127.8 411.32,-125 403.32,-122.2 403.32,-127.8"/>
</g>
<!-- router -->
<g id="node7" class="node">
<title>router</title>
<path fill="#2c5f8a" stroke="#2c5f8a" stroke-width="1.3" d="M486.05,-54C486.05,-54 435.95,-54 435.95,-54 429.95,-54 423.95,-48 423.95,-42 423.95,-42 423.95,-30 423.95,-30 423.95,-24 429.95,-18 435.95,-18 435.95,-18 486.05,-18 486.05,-18 492.05,-18 498.05,-24 498.05,-30 498.05,-30 498.05,-42 498.05,-42 498.05,-48 492.05,-54 486.05,-54"/>
<text xml:space="preserve" text-anchor="middle" x="461" y="-33.15" font-family="Microsoft YaHei" font-size="10.50" fill="white">多模型路由</text>
</g>
<!-- retr&#45;&gt;router -->
<g id="edge6" class="edge">
<title>retr&#45;&gt;router</title>
<path fill="none" stroke="#9aa7b4" stroke-width="1.2" d="M461,-106.56C461,-106.56 461,-64.23 461,-64.23"/>
<polygon fill="#9aa7b4" stroke="#9aa7b4" stroke-width="1.2" points="463.8,-64.23 461,-56.23 458.2,-64.23 463.8,-64.23"/>
</g>
<!-- base -->
<g id="node8" class="node">
<title>base</title>
<path fill="#dce9f7" stroke="#2c5f8a" stroke-width="1.3" d="M705.8,-54C705.8,-54 666.2,-54 666.2,-54 660.2,-54 654.2,-48 654.2,-42 654.2,-42 654.2,-30 654.2,-30 654.2,-24 660.2,-18 666.2,-18 666.2,-18 705.8,-18 705.8,-18 711.8,-18 717.8,-24 717.8,-30 717.8,-30 717.8,-42 717.8,-42 717.8,-48 711.8,-54 705.8,-54"/>
<text xml:space="preserve" text-anchor="middle" x="686" y="-33.15" font-family="Microsoft YaHei" font-size="10.50" fill="#333333">基础模型</text>
</g>
<!-- router&#45;&gt;base -->
<g id="edge7" class="edge">
<title>router&#45;&gt;base</title>
<path fill="none" stroke="#9aa7b4" stroke-width="1.2" d="M461,-17.58C461,-8.72 461,0 461,0 461,0 686,0 686,0 686,0 686,-7.76 686,-7.76"/>
<polygon fill="#9aa7b4" stroke="#9aa7b4" stroke-width="1.2" points="683.2,-7.76 686,-15.76 688.8,-7.76 683.2,-7.76"/>
</g>
<!-- ft -->
<g id="node9" class="node">
<title>ft</title>
<path fill="#dce9f7" stroke="#2c5f8a" stroke-width="1.3" d="M606.3,-54C606.3,-54 545.7,-54 545.7,-54 539.7,-54 533.7,-48 533.7,-42 533.7,-42 533.7,-30 533.7,-30 533.7,-24 539.7,-18 545.7,-18 545.7,-18 606.3,-18 606.3,-18 612.3,-18 618.3,-24 618.3,-30 618.3,-30 618.3,-42 618.3,-42 618.3,-48 612.3,-54 606.3,-54"/>
<text xml:space="preserve" text-anchor="middle" x="576" y="-33.15" font-family="Microsoft YaHei" font-size="10.50" fill="#333333">垂直微调模型</text>
</g>
<!-- router&#45;&gt;ft -->
<g id="edge8" class="edge">
<title>router&#45;&gt;ft</title>
<path fill="none" stroke="#9aa7b4" stroke-width="1.2" d="M498.66,-36C498.66,-36 523.26,-36 523.26,-36"/>
<polygon fill="#9aa7b4" stroke="#9aa7b4" stroke-width="1.2" points="523.26,-38.8 531.26,-36 523.26,-33.2 523.26,-38.8"/>
</g>
<!-- kb -->
<g id="node10" class="node">
<title>kb</title>
<path fill="#dce9f7" stroke="#2c5f8a" stroke-width="1.3" d="M450.3,-237.46C450.3,-237.46 371.7,-237.46 371.7,-237.46 365.7,-237.46 359.7,-231.46 359.7,-225.46 359.7,-225.46 359.7,-208 359.7,-208 359.7,-202 365.7,-196 371.7,-196 371.7,-196 450.3,-196 450.3,-196 456.3,-196 462.3,-202 462.3,-208 462.3,-208 462.3,-225.46 462.3,-225.46 462.3,-231.46 456.3,-237.46 450.3,-237.46"/>
<text xml:space="preserve" text-anchor="middle" x="411" y="-221.01" font-family="Microsoft YaHei" font-size="10.50" fill="#333333">知识库</text>
<text xml:space="preserve" text-anchor="middle" x="411" y="-206.76" font-family="Microsoft YaHei" font-size="10.50" fill="#333333">（向量+关键词）</text>
</g>
<!-- kb&#45;&gt;retr -->
<g id="edge9" class="edge">
<title>kb&#45;&gt;retr</title>
<path fill="none" stroke="#9aa7b4" stroke-width="1.2" d="M437.88,-195.45C437.88,-195.45 437.88,-153.19 437.88,-153.19"/>
<polygon fill="#9aa7b4" stroke="#9aa7b4" stroke-width="1.2" points="440.68,-153.19 437.88,-145.19 435.08,-153.19 440.68,-153.19"/>
</g>
<!-- data -->
<g id="node11" class="node">
<title>data</title>
<path fill="#dce9f7" stroke="#2c5f8a" stroke-width="1.3" d="M549.8,-234.73C549.8,-234.73 510.2,-234.73 510.2,-234.73 504.2,-234.73 498.2,-228.73 498.2,-222.73 498.2,-222.73 498.2,-210.73 498.2,-210.73 498.2,-204.73 504.2,-198.73 510.2,-198.73 510.2,-198.73 549.8,-198.73 549.8,-198.73 555.8,-198.73 561.8,-204.73 561.8,-210.73 561.8,-210.73 561.8,-222.73 561.8,-222.73 561.8,-228.73 555.8,-234.73 549.8,-234.73"/>
<text xml:space="preserve" text-anchor="middle" x="530" y="-213.88" font-family="Microsoft YaHei" font-size="10.50" fill="#333333">业务数据</text>
</g>
<!-- data&#45;&gt;retr -->
<g id="edge10" class="edge">
<title>data&#45;&gt;retr</title>
<path fill="none" stroke="#9aa7b4" stroke-width="1.2" d="M503.38,-198.17C503.38,-198.17 503.38,-153.35 503.38,-153.35"/>
<polygon fill="#9aa7b4" stroke="#9aa7b4" stroke-width="1.2" points="506.18,-153.35 503.38,-145.35 500.58,-153.35 506.18,-153.35"/>
</g>
<!-- tools -->
<g id="node12" class="node">
<title>tools</title>
<path fill="#dce9f7" stroke="#2c5f8a" stroke-width="1.3" d="M648.42,-234.73C648.42,-234.73 609.58,-234.73 609.58,-234.73 603.58,-234.73 597.58,-228.73 597.58,-222.73 597.58,-222.73 597.58,-210.73 597.58,-210.73 597.58,-204.73 603.58,-198.73 609.58,-198.73 609.58,-198.73 648.42,-198.73 648.42,-198.73 654.42,-198.73 660.42,-204.73 660.42,-210.73 660.42,-210.73 660.42,-222.73 660.42,-222.73 660.42,-228.73 654.42,-234.73 648.42,-234.73"/>
<text xml:space="preserve" text-anchor="middle" x="629" y="-213.88" font-family="Microsoft YaHei" font-size="10.50" fill="#333333">工具 API</text>
</g>
<!-- tools&#45;&gt;retr -->
<g id="edge11" class="edge">
<title>tools&#45;&gt;retr</title>
<path fill="none" stroke="#9aa7b4" stroke-width="1.2" d="M607.94,-198.17C607.94,-171.36 607.94,-125 607.94,-125 607.94,-125 518.93,-125 518.93,-125"/>
<polygon fill="#9aa7b4" stroke="#9aa7b4" stroke-width="1.2" points="518.93,-122.2 510.93,-125 518.93,-127.8 518.93,-122.2"/>
</g>
</g>
</svg>
