<?xml version="1.0" encoding="UTF-8" standalone="no"?>
<!DOCTYPE svg PUBLIC "-//W3C//DTD SVG 1.1//EN"
 "http://www.w3.org/Graphics/SVG/1.1/DTD/svg11.dtd">
<!-- Generated by graphviz version 15.1.0 (20260618.0150)
 -->
<!-- Title: G Pages: 1 -->
<svg width="441pt" height="344pt"
 viewBox="0.00 0.00 441.00 344.00" xmlns="http://www.w3.org/2000/svg" xmlns:xlink="http://www.w3.org/1999/xlink">
<g id="graph0" class="graph" transform="scale(1 1) rotate(0) translate(21.6 322.66)">
<title>G</title>
<polygon fill="white" stroke="none" points="-21.6,21.6 -21.6,-322.66 419.5,-322.66 419.5,21.6 -21.6,21.6"/>
<text xml:space="preserve" text-anchor="middle" x="198.95" y="-282.81" font-family="Microsoft YaHei" font-size="15.00" fill="#2c5f8a">敏捷迭代循环</text>
<!-- a1 -->
<g id="node1" class="node">
<title>a1</title>
<path fill="#dce9f7" stroke="#2c5f8a" stroke-width="1.3" d="M51.6,-270.05C51.6,-270.05 12,-270.05 12,-270.05 6,-270.05 0,-264.05 0,-258.05 0,-258.05 0,-246.05 0,-246.05 0,-240.05 6,-234.05 12,-234.05 12,-234.05 51.6,-234.05 51.6,-234.05 57.6,-234.05 63.6,-240.05 63.6,-246.05 63.6,-246.05 63.6,-258.05 63.6,-258.05 63.6,-264.05 57.6,-270.05 51.6,-270.05"/>
<text xml:space="preserve" text-anchor="middle" x="31.8" y="-249.2" font-family="Microsoft YaHei" font-size="10.50" fill="#333333">冲刺规划</text>
</g>
<!-- a2 -->
<g id="node2" class="node">
<title>a2</title>
<path fill="#dce9f7" stroke="#2c5f8a" stroke-width="1.3" d="M172.6,-272.06C172.6,-272.06 133,-272.06 133,-272.06 127,-272.06 121,-266.06 121,-260.06 121,-260.06 121,-244.04 121,-244.04 121,-238.04 127,-232.04 133,-232.04 133,-232.04 172.6,-232.04 172.6,-232.04 178.6,-232.04 184.6,-238.04 184.6,-244.04 184.6,-244.04 184.6,-260.06 184.6,-260.06 184.6,-266.06 178.6,-272.06 172.6,-272.06"/>
<text xml:space="preserve" text-anchor="middle" x="152.8" y="-256.32" font-family="Microsoft YaHei" font-size="10.50" fill="#333333">开发与</text>
<text xml:space="preserve" text-anchor="middle" x="152.8" y="-242.08" font-family="Microsoft YaHei" font-size="10.50" fill="#333333">每日站会</text>
</g>
<!-- a1&#45;&gt;a2 -->
<g id="edge1" class="edge">
<title>a1&#45;&gt;a2</title>
<path fill="none" stroke="#9aa7b4" stroke-width="1.2" d="M64.23,-252C64.23,-252 110.89,-252 110.89,-252"/>
<polygon fill="#9aa7b4" stroke="#9aa7b4" stroke-width="1.2" points="110.89,-254.8 118.89,-252 110.89,-249.2 110.89,-254.8"/>
</g>
<!-- a3 -->
<g id="node3" class="node">
<title>a3</title>
<path fill="#dce9f7" stroke="#2c5f8a" stroke-width="1.3" d="M303.85,-272.06C303.85,-272.06 253.75,-272.06 253.75,-272.06 247.75,-272.06 241.75,-266.06 241.75,-260.06 241.75,-260.06 241.75,-244.04 241.75,-244.04 241.75,-238.04 247.75,-232.04 253.75,-232.04 253.75,-232.04 303.85,-232.04 303.85,-232.04 309.85,-232.04 315.85,-238.04 315.85,-244.04 315.85,-244.04 315.85,-260.06 315.85,-260.06 315.85,-266.06 309.85,-272.06 303.85,-272.06"/>
<text xml:space="preserve" text-anchor="middle" x="278.8" y="-256.32" font-family="Microsoft YaHei" font-size="10.50" fill="#333333">交付可运行</text>
<text xml:space="preserve" text-anchor="middle" x="278.8" y="-242.08" font-family="Microsoft YaHei" font-size="10.50" fill="#333333">软件</text>
</g>
<!-- a2&#45;&gt;a3 -->
<g id="edge2" class="edge">
<title>a2&#45;&gt;a3</title>
<path fill="none" stroke="#9aa7b4" stroke-width="1.2" d="M185.25,-252C185.25,-252 231.74,-252 231.74,-252"/>
<polygon fill="#9aa7b4" stroke="#9aa7b4" stroke-width="1.2" points="231.74,-254.8 239.74,-252 231.74,-249.2 231.74,-254.8"/>
</g>
<!-- a4 -->
<g id="node4" class="node">
<title>a4</title>
<path fill="#dce9f7" stroke="#2c5f8a" stroke-width="1.3" d="M59.6,-152.02C59.6,-152.02 20,-152.02 20,-152.02 14,-152.02 8,-146.02 8,-140.02 8,-140.02 8,-128.02 8,-128.02 8,-122.02 14,-116.02 20,-116.02 20,-116.02 59.6,-116.02 59.6,-116.02 65.6,-116.02 71.6,-122.02 71.6,-128.02 71.6,-128.02 71.6,-140.02 71.6,-140.02 71.6,-146.02 65.6,-152.02 59.6,-152.02"/>
<text xml:space="preserve" text-anchor="middle" x="39.8" y="-131.17" font-family="Microsoft YaHei" font-size="10.50" fill="#333333">冲刺评审</text>
</g>
<!-- a3&#45;&gt;a4 -->
<g id="edge3" class="edge">
<title>a3&#45;&gt;a4</title>
<path fill="none" stroke="#9aa7b4" stroke-width="1.2" d="M245.73,-231.47C245.73,-202.98 245.73,-155 245.73,-155 245.73,-155 67.6,-155 67.6,-155 67.6,-155 67.6,-154.74 67.6,-154.74"/>
<polygon fill="#9aa7b4" stroke="#9aa7b4" stroke-width="1.2" points="70.4,-162.24 67.6,-154.24 64.8,-162.24 70.4,-162.24"/>
</g>
<!-- a5 -->
<g id="node5" class="node">
<title>a5</title>
<path fill="#dce9f7" stroke="#2c5f8a" stroke-width="1.3" d="M180.6,-152.02C180.6,-152.02 141,-152.02 141,-152.02 135,-152.02 129,-146.02 129,-140.02 129,-140.02 129,-128.02 129,-128.02 129,-122.02 135,-116.02 141,-116.02 141,-116.02 180.6,-116.02 180.6,-116.02 186.6,-116.02 192.6,-122.02 192.6,-128.02 192.6,-128.02 192.6,-140.02 192.6,-140.02 192.6,-146.02 186.6,-152.02 180.6,-152.02"/>
<text xml:space="preserve" text-anchor="middle" x="160.8" y="-131.17" font-family="Microsoft YaHei" font-size="10.50" fill="#333333">回顾改进</text>
</g>
<!-- a4&#45;&gt;a5 -->
<g id="edge4" class="edge">
<title>a4&#45;&gt;a5</title>
<path fill="none" stroke="#9aa7b4" stroke-width="1.2" d="M72.23,-134C72.23,-134 118.89,-134 118.89,-134"/>
<polygon fill="#9aa7b4" stroke="#9aa7b4" stroke-width="1.2" points="118.89,-136.8 126.89,-134 118.89,-131.2 118.89,-136.8"/>
</g>
<!-- d1 -->
<g id="node6" class="node">
<title>d1</title>
<path fill="#fff3d6" stroke="#e8833a" stroke-width="1.3" d="M312.47,-155.85C312.47,-155.85 261.03,-137.96 261.03,-137.96 255.37,-135.99 255.37,-132.05 261.03,-130.08 261.03,-130.08 312.47,-112.19 312.47,-112.19 318.13,-110.22 329.47,-110.22 335.13,-112.19 335.13,-112.19 386.57,-130.08 386.57,-130.08 392.23,-132.05 392.23,-135.99 386.57,-137.96 386.57,-137.96 335.13,-155.85 335.13,-155.85 329.47,-157.82 318.13,-157.82 312.47,-155.85"/>
<text xml:space="preserve" text-anchor="middle" x="323.8" y="-131.17" font-family="Microsoft YaHei" font-size="10.50" fill="#333333">继续迭代？</text>
</g>
<!-- a5&#45;&gt;d1 -->
<g id="edge5" class="edge">
<title>a5&#45;&gt;d1</title>
<path fill="none" stroke="#9aa7b4" stroke-width="1.2" d="M193,-134C193,-134 237.98,-134 237.98,-134"/>
<polygon fill="#9aa7b4" stroke="#9aa7b4" stroke-width="1.2" points="237.98,-136.8 245.98,-134 237.98,-131.2 237.98,-136.8"/>
</g>
<!-- d1&#45;&gt;a1 -->
<g id="edge6" class="edge">
<title>d1&#45;&gt;a1</title>
<path fill="none" stroke="#e8833a" stroke-width="1.2" stroke-dasharray="5,2" d="M313.89,-157C263.24,-157 35.8,-157 35.8,-157 35.8,-157 35.8,-223.91 35.8,-223.91"/>
<polygon fill="#e8833a" stroke="#e8833a" stroke-width="1.2" points="33,-223.91 35.8,-231.91 38.6,-223.91 33,-223.91"/>
<text xml:space="preserve" text-anchor="middle" x="144.68" y="-193.54" font-family="Microsoft YaHei" font-size="10.00" fill="#e8833a">是</text>
</g>
<!-- fin -->
<g id="node7" class="node">
<title>fin</title>
<path fill="#2c5f8a" stroke="#2c5f8a" stroke-width="1.3" d="M338.8,-36C338.8,-36 308.8,-36 308.8,-36 302.8,-36 296.8,-30 296.8,-24 296.8,-24 296.8,-12 296.8,-12 296.8,-6 302.8,0 308.8,0 308.8,0 338.8,0 338.8,0 344.8,0 350.8,-6 350.8,-12 350.8,-12 350.8,-24 350.8,-24 350.8,-30 344.8,-36 338.8,-36"/>
<text xml:space="preserve" text-anchor="middle" x="323.8" y="-15.15" font-family="Microsoft YaHei" font-size="10.50" fill="white">结束</text>
</g>
<!-- d1&#45;&gt;fin -->
<g id="edge7" class="edge">
<title>d1&#45;&gt;fin</title>
<path fill="none" stroke="#9aa7b4" stroke-width="1.2" d="M323.8,-107.69C323.8,-107.69 323.8,-46.45 323.8,-46.45"/>
<polygon fill="#9aa7b4" stroke="#9aa7b4" stroke-width="1.2" points="326.6,-46.45 323.8,-38.45 321,-46.45 326.6,-46.45"/>
<text xml:space="preserve" text-anchor="middle" x="328.68" y="-69.75" font-family="Microsoft YaHei" font-size="10.00" fill="#333333">否</text>
</g>
</g>
</svg>
