<?xml version="1.0" encoding="UTF-8" standalone="no"?>
<!DOCTYPE svg PUBLIC "-//W3C//DTD SVG 1.1//EN"
 "http://www.w3.org/Graphics/SVG/1.1/DTD/svg11.dtd">
<!-- Generated by graphviz version 15.1.0 (20260618.0150)
 -->
<!-- Title: G Pages: 1 -->
<svg width="558pt" height="452pt"
 viewBox="0.00 0.00 558.00 452.00" xmlns="http://www.w3.org/2000/svg" xmlns:xlink="http://www.w3.org/1999/xlink">
<g id="graph0" class="graph" transform="scale(1 1) rotate(0) translate(21.6 430.45)">
<title>G</title>
<polygon fill="white" stroke="none" points="-21.6,21.6 -21.6,-430.45 536.75,-430.45 536.75,21.6 -21.6,21.6"/>
<text xml:space="preserve" text-anchor="middle" x="257.57" y="-390.6" font-family="Microsoft YaHei" font-size="15.00" fill="#2c5f8a">质量门禁前移机制</text>
<!-- c1 -->
<g id="node1" class="node">
<title>c1</title>
<path fill="#dce9f7" stroke="#2c5f8a" stroke-width="1.3" d="M132.3,-379.85C132.3,-379.85 12,-379.85 12,-379.85 6,-379.85 0,-373.85 0,-367.85 0,-367.85 0,-332.45 0,-332.45 0,-326.45 6,-320.45 12,-320.45 12,-320.45 132.3,-320.45 132.3,-320.45 138.3,-320.45 144.3,-326.45 144.3,-332.45 144.3,-332.45 144.3,-367.85 144.3,-367.85 144.3,-373.85 138.3,-379.85 132.3,-379.85"/>
<text xml:space="preserve" text-anchor="middle" x="72.15" y="-362.2" font-family="Microsoft YaHei" font-size="11.00" fill="#333333">需求变更</text>
<text xml:space="preserve" text-anchor="middle" x="72.15" y="-347.2" font-family="Microsoft YaHei" font-size="11.00" fill="#333333">触发一致性检查</text>
<text xml:space="preserve" text-anchor="middle" x="72.15" y="-332.2" font-family="Microsoft YaHei" font-size="11.00" fill="#333333">（新旧需求冲突·遗漏）</text>
</g>
<!-- c2 -->
<g id="node2" class="node">
<title>c2</title>
<path fill="#dce9f7" stroke="#2c5f8a" stroke-width="1.3" d="M364.42,-379.85C364.42,-379.85 235.87,-379.85 235.87,-379.85 229.87,-379.85 223.87,-373.85 223.87,-367.85 223.87,-367.85 223.87,-332.45 223.87,-332.45 223.87,-326.45 229.87,-320.45 235.87,-320.45 235.87,-320.45 364.42,-320.45 364.42,-320.45 370.42,-320.45 376.42,-326.45 376.42,-332.45 376.42,-332.45 376.42,-367.85 376.42,-367.85 376.42,-373.85 370.42,-379.85 364.42,-379.85"/>
<text xml:space="preserve" text-anchor="middle" x="300.15" y="-362.2" font-family="Microsoft YaHei" font-size="11.00" fill="#333333">代码提交</text>
<text xml:space="preserve" text-anchor="middle" x="300.15" y="-347.2" font-family="Microsoft YaHei" font-size="11.00" fill="#333333">触发静态分析与测试生成</text>
<text xml:space="preserve" text-anchor="middle" x="300.15" y="-332.2" font-family="Microsoft YaHei" font-size="11.00" fill="#333333">（规则扫描·单元测试）</text>
</g>
<!-- c1&#45;&gt;c2 -->
<g id="edge1" class="edge">
<title>c1&#45;&gt;c2</title>
<path fill="none" stroke="#9aa7b4" stroke-width="1.2" d="M144.92,-350C144.92,-350 213.54,-350 213.54,-350"/>
<polygon fill="#9aa7b4" stroke="#9aa7b4" stroke-width="1.2" points="213.54,-352.8 221.54,-350 213.54,-347.2 213.54,-352.8"/>
</g>
<!-- c3 -->
<g id="node3" class="node">
<title>c3</title>
<path fill="#dce9f7" stroke="#2c5f8a" stroke-width="1.3" d="M353.17,-269.45C353.17,-269.45 247.12,-269.45 247.12,-269.45 241.12,-269.45 235.12,-263.45 235.12,-257.45 235.12,-257.45 235.12,-222.05 235.12,-222.05 235.12,-216.05 241.12,-210.05 247.12,-210.05 247.12,-210.05 353.17,-210.05 353.17,-210.05 359.17,-210.05 365.17,-216.05 365.17,-222.05 365.17,-222.05 365.17,-257.45 365.17,-257.45 365.17,-263.45 359.17,-269.45 353.17,-269.45"/>
<text xml:space="preserve" text-anchor="middle" x="300.15" y="-251.8" font-family="Microsoft YaHei" font-size="11.00" fill="#333333">版本发布</text>
<text xml:space="preserve" text-anchor="middle" x="300.15" y="-236.8" font-family="Microsoft YaHei" font-size="11.00" fill="#333333">触发安全与合规扫描</text>
<text xml:space="preserve" text-anchor="middle" x="300.15" y="-221.8" font-family="Microsoft YaHei" font-size="11.00" fill="#333333">（漏洞·许可·隐私）</text>
</g>
<!-- c2&#45;&gt;c3 -->
<g id="edge2" class="edge">
<title>c2&#45;&gt;c3</title>
<path fill="none" stroke="#9aa7b4" stroke-width="1.2" d="M300.15,-319.98C300.15,-319.98 300.15,-279.7 300.15,-279.7"/>
<polygon fill="#9aa7b4" stroke="#9aa7b4" stroke-width="1.2" points="302.95,-279.7 300.15,-271.7 297.35,-279.7 302.95,-279.7"/>
</g>
<!-- d -->
<g id="node4" class="node">
<title>d</title>
<path fill="#fff3d6" stroke="#e8833a" stroke-width="1.3" d="M112.81,-155.13C112.81,-155.13 50.44,-133.57 50.44,-133.57 44.77,-131.61 44.77,-127.69 50.44,-125.73 50.44,-125.73 112.81,-104.17 112.81,-104.17 118.48,-102.21 129.82,-102.21 135.49,-104.17 135.49,-104.17 197.86,-125.73 197.86,-125.73 203.53,-127.69 203.53,-131.61 197.86,-133.57 197.86,-133.57 135.49,-155.13 135.49,-155.13 129.82,-157.09 118.48,-157.09 112.81,-155.13"/>
<text xml:space="preserve" text-anchor="middle" x="124.15" y="-126.7" font-family="Microsoft YaHei" font-size="11.00" fill="#333333">检查通过？</text>
</g>
<!-- c3&#45;&gt;d -->
<g id="edge3" class="edge">
<title>c3&#45;&gt;d</title>
<path fill="none" stroke="#9aa7b4" stroke-width="1.2" d="M261.75,-209.41C261.75,-184.39 261.75,-153 261.75,-153 261.75,-153 153.39,-153 153.39,-153"/>
<polygon fill="#9aa7b4" stroke="#9aa7b4" stroke-width="1.2" points="153.39,-150.2 145.39,-153 153.39,-155.8 153.39,-150.2"/>
</g>
<!-- yes -->
<g id="node5" class="node">
<title>yes</title>
<path fill="#2c5f8a" stroke="#2c5f8a" stroke-width="1.3" d="M165.92,-36C165.92,-36 82.37,-36 82.37,-36 76.37,-36 70.37,-30 70.37,-24 70.37,-24 70.37,-12 70.37,-12 70.37,-6 76.37,0 82.37,0 82.37,0 165.92,0 165.92,0 171.92,0 177.92,-6 177.92,-12 177.92,-12 177.92,-24 177.92,-24 177.92,-30 171.92,-36 165.92,-36"/>
<text xml:space="preserve" text-anchor="middle" x="124.15" y="-15.05" font-family="Microsoft YaHei" font-size="11.00" fill="white">放行进入下一步</text>
</g>
<!-- d&#45;&gt;yes -->
<g id="edge4" class="edge">
<title>d&#45;&gt;yes</title>
<path fill="none" stroke="#9aa7b4" stroke-width="1.2" d="M124.15,-99.73C124.15,-99.73 124.15,-46.26 124.15,-46.26"/>
<polygon fill="#9aa7b4" stroke="#9aa7b4" stroke-width="1.2" points="126.95,-46.26 124.15,-38.26 121.35,-46.26 126.95,-46.26"/>
<text xml:space="preserve" text-anchor="middle" x="129.02" y="-65.75" font-family="Microsoft YaHei" font-size="10.00" fill="#333333">是</text>
</g>
<!-- no1 -->
<g id="node6" class="node">
<title>no1</title>
<path fill="#fce9db" stroke="#e8833a" stroke-width="1.3" d="M383.92,-147.65C383.92,-147.65 300.38,-147.65 300.38,-147.65 294.38,-147.65 288.38,-141.65 288.38,-135.65 288.38,-135.65 288.38,-123.65 288.38,-123.65 288.38,-117.65 294.38,-111.65 300.38,-111.65 300.38,-111.65 383.92,-111.65 383.92,-111.65 389.92,-111.65 395.92,-117.65 395.92,-123.65 395.92,-123.65 395.92,-135.65 395.92,-135.65 395.92,-141.65 389.92,-147.65 383.92,-147.65"/>
<text xml:space="preserve" text-anchor="middle" x="342.15" y="-126.7" font-family="Microsoft YaHei" font-size="11.00" fill="#333333">人工处置与修正</text>
</g>
<!-- d&#45;&gt;no1 -->
<g id="edge5" class="edge">
<title>d&#45;&gt;no1</title>
<path fill="none" stroke="#9aa7b4" stroke-width="1.2" d="M210,-130C210,-130 277.99,-130 277.99,-130"/>
<polygon fill="#9aa7b4" stroke="#9aa7b4" stroke-width="1.2" points="277.99,-132.8 285.99,-130 277.99,-127.2 277.99,-132.8"/>
<text xml:space="preserve" text-anchor="middle" x="239.12" y="-134.75" font-family="Microsoft YaHei" font-size="10.00" fill="#333333">否</text>
</g>
<!-- no2 -->
<g id="node7" class="node">
<title>no2</title>
<path fill="#fce9db" stroke="#e8833a" stroke-width="1.3" d="M456.05,-36C456.05,-36 406.25,-36 406.25,-36 400.25,-36 394.25,-30 394.25,-24 394.25,-24 394.25,-12 394.25,-12 394.25,-6 400.25,0 406.25,0 406.25,0 456.05,0 456.05,0 462.05,0 468.05,-6 468.05,-12 468.05,-12 468.05,-24 468.05,-24 468.05,-30 462.05,-36 456.05,-36"/>
<text xml:space="preserve" text-anchor="middle" x="431.15" y="-15.05" font-family="Microsoft YaHei" font-size="11.00" fill="#333333">重新提交</text>
</g>
<!-- no1&#45;&gt;no2 -->
<g id="edge6" class="edge">
<title>no1&#45;&gt;no2</title>
<path fill="none" stroke="#9aa7b4" stroke-width="1.2" d="M396.2,-130C409.47,-130 419.97,-130 419.97,-130 419.97,-130 419.97,-46.31 419.97,-46.31"/>
<polygon fill="#9aa7b4" stroke="#9aa7b4" stroke-width="1.2" points="422.77,-46.31 419.97,-38.31 417.17,-46.31 422.77,-46.31"/>
</g>
<!-- no2&#45;&gt;c3 -->
<g id="edge7" class="edge">
<title>no2&#45;&gt;c3</title>
<path fill="none" stroke="#e8833a" stroke-width="1.2" stroke-dasharray="5,2" d="M444.01,-36.55C444.01,-89.9 444.01,-240 444.01,-240 444.01,-240 375.58,-240 375.58,-240"/>
<polygon fill="#e8833a" stroke="#e8833a" stroke-width="1.2" points="375.58,-237.2 367.58,-240 375.58,-242.8 375.58,-237.2"/>
<text xml:space="preserve" text-anchor="middle" x="495.65" y="-127.28" font-family="Microsoft YaHei" font-size="10.00" fill="#e8833a">重新提交</text>
</g>
</g>
</svg>
