<?xml version="1.0" encoding="UTF-8" standalone="no"?>
<!DOCTYPE svg PUBLIC "-//W3C//DTD SVG 1.1//EN"
 "http://www.w3.org/Graphics/SVG/1.1/DTD/svg11.dtd">
<!-- Generated by graphviz version 15.1.0 (20260618.0150)
 -->
<!-- Title: G Pages: 1 -->
<svg width="494pt" height="234pt"
 viewBox="0.00 0.00 494.00 234.00" xmlns="http://www.w3.org/2000/svg" xmlns:xlink="http://www.w3.org/1999/xlink">
<g id="graph0" class="graph" transform="scale(1 1) rotate(0) translate(21.6 212.4)">
<title>G</title>
<polygon fill="white" stroke="none" points="-21.6,21.6 -21.6,-212.4 472.27,-212.4 472.27,21.6 -21.6,21.6"/>
<text xml:space="preserve" text-anchor="middle" x="225.34" y="-172.55" font-family="Microsoft YaHei" font-size="15.00" fill="#2c5f8a">上下文与知识资产的组织</text>
<!-- hub -->
<g id="node1" class="node">
<title>hub</title>
<path fill="#2c5f8a" stroke="#2c5f8a" stroke-width="1.3" d="M201.3,-154.3C201.3,-154.3 106.5,-154.3 106.5,-154.3 100.5,-154.3 94.5,-148.3 94.5,-142.3 94.5,-142.3 94.5,-121.9 94.5,-121.9 94.5,-115.9 100.5,-109.9 106.5,-109.9 106.5,-109.9 201.3,-109.9 201.3,-109.9 207.3,-109.9 213.3,-115.9 213.3,-121.9 213.3,-121.9 213.3,-142.3 213.3,-142.3 213.3,-148.3 207.3,-154.3 201.3,-154.3"/>
<text xml:space="preserve" text-anchor="middle" x="153.9" y="-136.65" font-family="Microsoft YaHei" font-size="11.00" fill="white">模型上下文</text>
<text xml:space="preserve" text-anchor="middle" x="153.9" y="-121.65" font-family="Microsoft YaHei" font-size="11.00" fill="white">（仓库即上下文）</text>
</g>
<!-- r1 -->
<g id="node2" class="node">
<title>r1</title>
<path fill="#dce9f7" stroke="#2c5f8a" stroke-width="1.3" d="M61.8,-59.4C61.8,-59.4 12,-59.4 12,-59.4 6,-59.4 0,-53.4 0,-47.4 0,-47.4 0,-12 0,-12 0,-6 6,0 12,0 12,0 61.8,0 61.8,0 67.8,0 73.8,-6 73.8,-12 73.8,-12 73.8,-47.4 73.8,-47.4 73.8,-53.4 67.8,-59.4 61.8,-59.4"/>
<text xml:space="preserve" text-anchor="middle" x="36.9" y="-41.75" font-family="Microsoft YaHei" font-size="11.00" fill="#333333">代码索引</text>
<text xml:space="preserve" text-anchor="middle" x="36.9" y="-26.75" font-family="Microsoft YaHei" font-size="11.00" fill="#333333">仓库结构</text>
<text xml:space="preserve" text-anchor="middle" x="36.9" y="-11.75" font-family="Microsoft YaHei" font-size="11.00" fill="#333333">与符号表</text>
</g>
<!-- hub&#45;&gt;r1 -->
<g id="edge1" class="edge">
<title>hub&#45;&gt;r1</title>
<path fill="none" stroke="#9aa7b4" stroke-width="1.2" d="M105.75,-109.44C105.75,-79.36 105.75,-30 105.75,-30 105.75,-30 83.96,-30 83.96,-30"/>
<polygon fill="#9aa7b4" stroke="#9aa7b4" stroke-width="1.2" points="83.96,-27.2 75.96,-30 83.96,-32.8 83.96,-27.2"/>
</g>
<!-- r2 -->
<g id="node3" class="node">
<title>r2</title>
<path fill="#dce9f7" stroke="#2c5f8a" stroke-width="1.3" d="M178.8,-59.4C178.8,-59.4 129,-59.4 129,-59.4 123,-59.4 117,-53.4 117,-47.4 117,-47.4 117,-12 117,-12 117,-6 123,0 129,0 129,0 178.8,0 178.8,0 184.8,0 190.8,-6 190.8,-12 190.8,-12 190.8,-47.4 190.8,-47.4 190.8,-53.4 184.8,-59.4 178.8,-59.4"/>
<text xml:space="preserve" text-anchor="middle" x="153.9" y="-41.75" font-family="Microsoft YaHei" font-size="11.00" fill="#333333">知识库</text>
<text xml:space="preserve" text-anchor="middle" x="153.9" y="-26.75" font-family="Microsoft YaHei" font-size="11.00" fill="#333333">技术规范</text>
<text xml:space="preserve" text-anchor="middle" x="153.9" y="-11.75" font-family="Microsoft YaHei" font-size="11.00" fill="#333333">与问题库</text>
</g>
<!-- hub&#45;&gt;r2 -->
<g id="edge2" class="edge">
<title>hub&#45;&gt;r2</title>
<path fill="none" stroke="#9aa7b4" stroke-width="1.2" d="M153.9,-109.37C153.9,-109.37 153.9,-69.56 153.9,-69.56"/>
<polygon fill="#9aa7b4" stroke="#9aa7b4" stroke-width="1.2" points="156.7,-69.56 153.9,-61.56 151.1,-69.57 156.7,-69.56"/>
</g>
<!-- r3 -->
<g id="node4" class="node">
<title>r3</title>
<path fill="#dce9f7" stroke="#2c5f8a" stroke-width="1.3" d="M306.42,-59.4C306.42,-59.4 245.37,-59.4 245.37,-59.4 239.37,-59.4 233.37,-53.4 233.37,-47.4 233.37,-47.4 233.37,-12 233.37,-12 233.37,-6 239.37,0 245.37,0 245.37,0 306.42,0 306.42,0 312.42,0 318.42,-6 318.42,-12 318.42,-12 318.42,-47.4 318.42,-47.4 318.42,-53.4 312.42,-59.4 306.42,-59.4"/>
<text xml:space="preserve" text-anchor="middle" x="275.9" y="-41.75" font-family="Microsoft YaHei" font-size="11.00" fill="#333333">文档</text>
<text xml:space="preserve" text-anchor="middle" x="275.9" y="-26.75" font-family="Microsoft YaHei" font-size="11.00" fill="#333333">需求、设计</text>
<text xml:space="preserve" text-anchor="middle" x="275.9" y="-11.75" font-family="Microsoft YaHei" font-size="11.00" fill="#333333">与接口</text>
</g>
<!-- hub&#45;&gt;r3 -->
<g id="edge3" class="edge">
<title>hub&#45;&gt;r3</title>
<path fill="none" stroke="#9aa7b4" stroke-width="1.2" d="M213.7,-125C230.7,-125 244.69,-125 244.69,-125 244.69,-125 244.69,-69.67 244.69,-69.67"/>
<polygon fill="#9aa7b4" stroke="#9aa7b4" stroke-width="1.2" points="247.49,-69.67 244.69,-61.67 241.89,-69.67 247.49,-69.67"/>
</g>
<!-- r4 -->
<g id="node5" class="node">
<title>r4</title>
<path fill="#dce9f7" stroke="#2c5f8a" stroke-width="1.3" d="M438.67,-161.8C438.67,-161.8 385.12,-161.8 385.12,-161.8 379.12,-161.8 373.12,-155.8 373.12,-149.8 373.12,-149.8 373.12,-114.4 373.12,-114.4 373.12,-108.4 379.12,-102.4 385.12,-102.4 385.12,-102.4 438.67,-102.4 438.67,-102.4 444.67,-102.4 450.67,-108.4 450.67,-114.4 450.67,-114.4 450.67,-149.8 450.67,-149.8 450.67,-155.8 444.67,-161.8 438.67,-161.8"/>
<text xml:space="preserve" text-anchor="middle" x="411.9" y="-144.15" font-family="Microsoft YaHei" font-size="11.00" fill="#333333">决策记录</text>
<text xml:space="preserve" text-anchor="middle" x="411.9" y="-129.15" font-family="Microsoft YaHei" font-size="11.00" fill="#333333">ADR 架构</text>
<text xml:space="preserve" text-anchor="middle" x="411.9" y="-114.15" font-family="Microsoft YaHei" font-size="11.00" fill="#333333">决策</text>
</g>
<!-- hub&#45;&gt;r4 -->
<g id="edge4" class="edge">
<title>hub&#45;&gt;r4</title>
<path fill="none" stroke="#9aa7b4" stroke-width="1.2" d="M202.05,-109.54C202.05,-95.85 202.05,-81 202.05,-81 202.05,-81 411.9,-81 411.9,-81 411.9,-81 411.9,-91.97 411.9,-91.97"/>
<polygon fill="#9aa7b4" stroke="#9aa7b4" stroke-width="1.2" points="409.1,-91.97 411.9,-99.97 414.7,-91.97 409.1,-91.97"/>
</g>
<!-- r5 -->
<g id="node6" class="node">
<title>r5</title>
<path fill="#dce9f7" stroke="#2c5f8a" stroke-width="1.3" d="M317.8,-161.8C317.8,-161.8 268,-161.8 268,-161.8 262,-161.8 256,-155.8 256,-149.8 256,-149.8 256,-114.4 256,-114.4 256,-108.4 262,-102.4 268,-102.4 268,-102.4 317.8,-102.4 317.8,-102.4 323.8,-102.4 329.8,-108.4 329.8,-114.4 329.8,-114.4 329.8,-149.8 329.8,-149.8 329.8,-155.8 323.8,-161.8 317.8,-161.8"/>
<text xml:space="preserve" text-anchor="middle" x="292.9" y="-144.15" font-family="Microsoft YaHei" font-size="11.00" fill="#333333">评测集</text>
<text xml:space="preserve" text-anchor="middle" x="292.9" y="-129.15" font-family="Microsoft YaHei" font-size="11.00" fill="#333333">验收与</text>
<text xml:space="preserve" text-anchor="middle" x="292.9" y="-114.15" font-family="Microsoft YaHei" font-size="11.00" fill="#333333">回归样本</text>
</g>
<!-- hub&#45;&gt;r5 -->
<g id="edge5" class="edge">
<title>hub&#45;&gt;r5</title>
<path fill="none" stroke="#9aa7b4" stroke-width="1.2" d="M213.66,-140C213.66,-140 245.87,-140 245.87,-140"/>
<polygon fill="#9aa7b4" stroke="#9aa7b4" stroke-width="1.2" points="245.87,-142.8 253.87,-140 245.87,-137.2 245.87,-142.8"/>
</g>
</g>
</svg>
