<?xml version="1.0" encoding="UTF-8" standalone="no"?>
<!DOCTYPE svg PUBLIC "-//W3C//DTD SVG 1.1//EN"
 "http://www.w3.org/Graphics/SVG/1.1/DTD/svg11.dtd">
<!-- Generated by graphviz version 15.1.0 (20260618.0150)
 -->
<!-- Title: G Pages: 1 -->
<svg width="651pt" height="283pt"
 viewBox="0.00 0.00 651.00 283.00" xmlns="http://www.w3.org/2000/svg" xmlns:xlink="http://www.w3.org/1999/xlink">
<g id="graph0" class="graph" transform="scale(1 1) rotate(0) translate(21.6 260.98)">
<title>G</title>
<polygon fill="white" stroke="none" points="-21.6,21.6 -21.6,-260.98 629.02,-260.98 629.02,21.6 -21.6,21.6"/>
<text xml:space="preserve" text-anchor="middle" x="303.71" y="-221.13" font-family="Microsoft YaHei" font-size="15.00" fill="#2c5f8a">自主性分级模型 L0–L5</text>
<!-- l0 -->
<g id="node1" class="node">
<title>l0</title>
<path fill="#dce9f7" stroke="#2c5f8a" stroke-width="1.3" d="M87.42,-210.38C87.42,-210.38 12,-210.38 12,-210.38 6,-210.38 0,-204.38 0,-198.38 0,-198.38 0,-180.92 0,-180.92 0,-174.92 6,-168.92 12,-168.92 12,-168.92 87.42,-168.92 87.42,-168.92 93.42,-168.92 99.42,-174.92 99.42,-180.92 99.42,-180.92 99.42,-198.38 99.42,-198.38 99.42,-204.38 93.42,-210.38 87.42,-210.38"/>
<text xml:space="preserve" text-anchor="middle" x="49.71" y="-193.93" font-family="Microsoft YaHei" font-size="10.50" fill="#333333">L0 全人工</text>
<text xml:space="preserve" text-anchor="middle" x="49.71" y="-179.68" font-family="Microsoft YaHei" font-size="10.50" fill="#333333">人完成全部开发</text>
</g>
<!-- l1 -->
<g id="node2" class="node">
<title>l1</title>
<path fill="#dce9f7" stroke="#2c5f8a" stroke-width="1.3" d="M276.17,-210.38C276.17,-210.38 169.25,-210.38 169.25,-210.38 163.25,-210.38 157.25,-204.38 157.25,-198.38 157.25,-198.38 157.25,-180.92 157.25,-180.92 157.25,-174.92 163.25,-168.92 169.25,-168.92 169.25,-168.92 276.17,-168.92 276.17,-168.92 282.17,-168.92 288.17,-174.92 288.17,-180.92 288.17,-180.92 288.17,-198.38 288.17,-198.38 288.17,-204.38 282.17,-210.38 276.17,-210.38"/>
<text xml:space="preserve" text-anchor="middle" x="222.71" y="-193.93" font-family="Microsoft YaHei" font-size="10.50" fill="#333333">L1 建议</text>
<text xml:space="preserve" text-anchor="middle" x="222.71" y="-179.68" font-family="Microsoft YaHei" font-size="10.50" fill="#333333">模型给出建议，人决定</text>
</g>
<!-- l0&#45;&gt;l1 -->
<g id="edge1" class="edge">
<title>l0&#45;&gt;l1</title>
<path fill="none" stroke="#9aa7b4" stroke-width="1.2" d="M99.75,-190C99.75,-190 146.86,-190 146.86,-190"/>
<polygon fill="#9aa7b4" stroke="#9aa7b4" stroke-width="1.2" points="146.86,-192.8 154.86,-190 146.86,-187.2 146.86,-192.8"/>
</g>
<!-- l2 -->
<g id="node3" class="node">
<title>l2</title>
<path fill="#dce9f7" stroke="#2c5f8a" stroke-width="1.3" d="M270.92,-125.92C270.92,-125.92 174.5,-125.92 174.5,-125.92 168.5,-125.92 162.5,-119.92 162.5,-113.92 162.5,-113.92 162.5,-96.46 162.5,-96.46 162.5,-90.46 168.5,-84.46 174.5,-84.46 174.5,-84.46 270.92,-84.46 270.92,-84.46 276.92,-84.46 282.92,-90.46 282.92,-96.46 282.92,-96.46 282.92,-113.92 282.92,-113.92 282.92,-119.92 276.92,-125.92 270.92,-125.92"/>
<text xml:space="preserve" text-anchor="middle" x="222.71" y="-109.47" font-family="Microsoft YaHei" font-size="10.50" fill="#333333">L2 审批执行</text>
<text xml:space="preserve" text-anchor="middle" x="222.71" y="-95.22" font-family="Microsoft YaHei" font-size="10.50" fill="#333333">人批准后智能体执行</text>
</g>
<!-- l1&#45;&gt;l2 -->
<g id="edge2" class="edge">
<title>l1&#45;&gt;l2</title>
<path fill="none" stroke="#9aa7b4" stroke-width="1.2" d="M222.71,-168.34C222.71,-168.34 222.71,-136.31 222.71,-136.31"/>
<polygon fill="#9aa7b4" stroke="#9aa7b4" stroke-width="1.2" points="225.51,-136.31 222.71,-128.31 219.91,-136.31 225.51,-136.31"/>
</g>
<!-- l3 -->
<g id="node4" class="node">
<title>l3</title>
<path fill="#dce9f7" stroke="#2c5f8a" stroke-width="1.3" d="M448.92,-125.92C448.92,-125.92 352.5,-125.92 352.5,-125.92 346.5,-125.92 340.5,-119.92 340.5,-113.92 340.5,-113.92 340.5,-96.46 340.5,-96.46 340.5,-90.46 346.5,-84.46 352.5,-84.46 352.5,-84.46 448.92,-84.46 448.92,-84.46 454.92,-84.46 460.92,-90.46 460.92,-96.46 460.92,-96.46 460.92,-113.92 460.92,-113.92 460.92,-119.92 454.92,-125.92 448.92,-125.92"/>
<text xml:space="preserve" text-anchor="middle" x="400.71" y="-109.47" font-family="Microsoft YaHei" font-size="10.50" fill="#333333">L3 授权自主</text>
<text xml:space="preserve" text-anchor="middle" x="400.71" y="-95.22" font-family="Microsoft YaHei" font-size="10.50" fill="#333333">授权范围内自主完成</text>
</g>
<!-- l2&#45;&gt;l3 -->
<g id="edge3" class="edge">
<title>l2&#45;&gt;l3</title>
<path fill="none" stroke="#9aa7b4" stroke-width="1.2" d="M283.47,-105C283.47,-105 330.11,-105 330.11,-105"/>
<polygon fill="#9aa7b4" stroke="#9aa7b4" stroke-width="1.2" points="330.11,-107.8 338.11,-105 330.11,-102.2 330.11,-107.8"/>
</g>
<!-- l4 -->
<g id="node5" class="node">
<title>l4</title>
<path fill="#dce9f7" stroke="#2c5f8a" stroke-width="1.3" d="M438.42,-41.46C438.42,-41.46 363,-41.46 363,-41.46 357,-41.46 351,-35.46 351,-29.46 351,-29.46 351,-12 351,-12 351,-6 357,0 363,0 363,0 438.42,0 438.42,0 444.42,0 450.42,-6 450.42,-12 450.42,-12 450.42,-29.46 450.42,-29.46 450.42,-35.46 444.42,-41.46 438.42,-41.46"/>
<text xml:space="preserve" text-anchor="middle" x="400.71" y="-25.01" font-family="Microsoft YaHei" font-size="10.50" fill="#333333">L4 有条件自治</text>
<text xml:space="preserve" text-anchor="middle" x="400.71" y="-10.76" font-family="Microsoft YaHei" font-size="10.50" fill="#333333">满足条件即自治</text>
</g>
<!-- l3&#45;&gt;l4 -->
<g id="edge4" class="edge">
<title>l3&#45;&gt;l4</title>
<path fill="none" stroke="#9aa7b4" stroke-width="1.2" d="M400.71,-83.88C400.71,-83.88 400.71,-51.85 400.71,-51.85"/>
<polygon fill="#9aa7b4" stroke="#9aa7b4" stroke-width="1.2" points="403.51,-51.85 400.71,-43.85 397.91,-51.85 403.51,-51.85"/>
</g>
<!-- l5 -->
<g id="node6" class="node">
<title>l5</title>
<path fill="#2c5f8a" stroke="#2c5f8a" stroke-width="1.3" d="M595.42,-41.46C595.42,-41.46 520,-41.46 520,-41.46 514,-41.46 508,-35.46 508,-29.46 508,-29.46 508,-12 508,-12 508,-6 514,0 520,0 520,0 595.42,0 595.42,0 601.42,0 607.42,-6 607.42,-12 607.42,-12 607.42,-29.46 607.42,-29.46 607.42,-35.46 601.42,-41.46 595.42,-41.46"/>
<text xml:space="preserve" text-anchor="middle" x="557.71" y="-25.01" font-family="Microsoft YaHei" font-size="10.50" fill="white">L5 完全自治</text>
<text xml:space="preserve" text-anchor="middle" x="557.71" y="-10.76" font-family="Microsoft YaHei" font-size="10.50" fill="white">智能体全程自主</text>
</g>
<!-- l4&#45;&gt;l5 -->
<g id="edge5" class="edge">
<title>l4&#45;&gt;l5</title>
<path fill="none" stroke="#9aa7b4" stroke-width="1.2" d="M450.82,-21C450.82,-21 497.72,-21 497.72,-21"/>
<polygon fill="#9aa7b4" stroke="#9aa7b4" stroke-width="1.2" points="497.72,-23.8 505.72,-21 497.72,-18.2 497.72,-23.8"/>
</g>
</g>
</svg>
