<?xml version="1.0" encoding="UTF-8" standalone="no"?>
<!DOCTYPE svg PUBLIC "-//W3C//DTD SVG 1.1//EN"
 "http://www.w3.org/Graphics/SVG/1.1/DTD/svg11.dtd">
<!-- Generated by graphviz version 15.1.0 (20260618.0150)
 -->
<!-- Title: G Pages: 1 -->
<svg width="636pt" height="291pt"
 viewBox="0.00 0.00 636.00 291.00" xmlns="http://www.w3.org/2000/svg" xmlns:xlink="http://www.w3.org/1999/xlink">
<g id="graph0" class="graph" transform="scale(1 1) rotate(0) translate(21.6 269.8)">
<title>G</title>
<polygon fill="white" stroke="none" points="-21.6,21.6 -21.6,-269.8 614.27,-269.8 614.27,21.6 -21.6,21.6"/>
<text xml:space="preserve" text-anchor="middle" x="296.34" y="-229.95" font-family="Microsoft YaHei" font-size="15.00" fill="#2c5f8a">智能体网络：异构智能体的规模化协作</text>
<!-- hub -->
<g id="node1" class="node">
<title>hub</title>
<path fill="#2c5f8a" stroke="#2c5f8a" stroke-width="1.3" d="M291.43,-131.8C291.43,-131.8 187.62,-131.8 187.62,-131.8 181.62,-131.8 175.62,-125.8 175.62,-119.8 175.62,-119.8 175.62,-99.4 175.62,-99.4 175.62,-93.4 181.62,-87.4 187.62,-87.4 187.62,-87.4 291.43,-87.4 291.43,-87.4 297.43,-87.4 303.43,-93.4 303.43,-99.4 303.43,-99.4 303.43,-119.8 303.43,-119.8 303.43,-125.8 297.43,-131.8 291.43,-131.8"/>
<text xml:space="preserve" text-anchor="middle" x="239.53" y="-114.15" font-family="Microsoft YaHei" font-size="11.00" fill="white">智能体网络</text>
<text xml:space="preserve" text-anchor="middle" x="239.53" y="-99.15" font-family="Microsoft YaHei" font-size="11.00" fill="white">统一协议 · 共享记忆</text>
</g>
<!-- a3 -->
<g id="node4" class="node">
<title>a3</title>
<path fill="#dce9f7" stroke="#2c5f8a" stroke-width="1.3" d="M73.05,-44.4C73.05,-44.4 12,-44.4 12,-44.4 6,-44.4 0,-38.4 0,-32.4 0,-32.4 0,-12 0,-12 0,-6 6,0 12,0 12,0 73.05,0 73.05,0 79.05,0 85.05,-6 85.05,-12 85.05,-12 85.05,-32.4 85.05,-32.4 85.05,-38.4 79.05,-44.4 73.05,-44.4"/>
<text xml:space="preserve" text-anchor="middle" x="42.53" y="-26.75" font-family="Microsoft YaHei" font-size="11.00" fill="#333333">测试智能体</text>
<text xml:space="preserve" text-anchor="middle" x="42.53" y="-11.75" font-family="Microsoft YaHei" font-size="11.00" fill="#333333">评测与回归</text>
</g>
<!-- hub&#45;&gt;a3 -->
<g id="edge3" class="edge">
<title>hub&#45;&gt;a3</title>
<path fill="none" stroke="#9aa7b4" stroke-width="1.2" d="M175.02,-110C117.57,-110 42.53,-110 42.53,-110 42.53,-110 42.53,-54.63 42.53,-54.63"/>
<polygon fill="#9aa7b4" stroke="#9aa7b4" stroke-width="1.2" points="45.33,-54.63 42.53,-46.63 39.73,-54.63 45.33,-54.63"/>
</g>
<!-- a4 -->
<g id="node5" class="node">
<title>a4</title>
<path fill="#dce9f7" stroke="#2c5f8a" stroke-width="1.3" d="M201.05,-44.4C201.05,-44.4 140,-44.4 140,-44.4 134,-44.4 128,-38.4 128,-32.4 128,-32.4 128,-12 128,-12 128,-6 134,0 140,0 140,0 201.05,0 201.05,0 207.05,0 213.05,-6 213.05,-12 213.05,-12 213.05,-32.4 213.05,-32.4 213.05,-38.4 207.05,-44.4 201.05,-44.4"/>
<text xml:space="preserve" text-anchor="middle" x="170.53" y="-26.75" font-family="Microsoft YaHei" font-size="11.00" fill="#333333">运维智能体</text>
<text xml:space="preserve" text-anchor="middle" x="170.53" y="-11.75" font-family="Microsoft YaHei" font-size="11.00" fill="#333333">监控与修复</text>
</g>
<!-- hub&#45;&gt;a4 -->
<g id="edge4" class="edge">
<title>hub&#45;&gt;a4</title>
<path fill="none" stroke="#9aa7b4" stroke-width="1.2" d="M194.34,-87.09C194.34,-87.09 194.34,-54.75 194.34,-54.75"/>
<polygon fill="#9aa7b4" stroke="#9aa7b4" stroke-width="1.2" points="197.14,-54.75 194.34,-46.75 191.54,-54.75 197.14,-54.75"/>
</g>
<!-- a5 -->
<g id="node6" class="node">
<title>a5</title>
<path fill="#dce9f7" stroke="#2c5f8a" stroke-width="1.3" d="M351.3,-44.4C351.3,-44.4 267.75,-44.4 267.75,-44.4 261.75,-44.4 255.75,-38.4 255.75,-32.4 255.75,-32.4 255.75,-12 255.75,-12 255.75,-6 261.75,0 267.75,0 267.75,0 351.3,0 351.3,0 357.3,0 363.3,-6 363.3,-12 363.3,-12 363.3,-32.4 363.3,-32.4 363.3,-38.4 357.3,-44.4 351.3,-44.4"/>
<text xml:space="preserve" text-anchor="middle" x="309.52" y="-26.75" font-family="Microsoft YaHei" font-size="11.00" fill="#333333">编排智能体</text>
<text xml:space="preserve" text-anchor="middle" x="309.52" y="-11.75" font-family="Microsoft YaHei" font-size="11.00" fill="#333333">任务调度与审计</text>
</g>
<!-- hub&#45;&gt;a5 -->
<g id="edge5" class="edge">
<title>hub&#45;&gt;a5</title>
<path fill="none" stroke="#9aa7b4" stroke-width="1.2" d="M279.59,-87.09C279.59,-87.09 279.59,-54.75 279.59,-54.75"/>
<polygon fill="#9aa7b4" stroke="#9aa7b4" stroke-width="1.2" points="282.39,-54.75 279.59,-46.75 276.79,-54.75 282.39,-54.75"/>
</g>
<!-- note -->
<g id="node7" class="node">
<title>note</title>
<path fill="#fce9db" stroke="#e8833a" stroke-width="1.3" d="M580.67,-44.4C580.67,-44.4 418.38,-44.4 418.38,-44.4 412.38,-44.4 406.38,-38.4 406.38,-32.4 406.38,-32.4 406.38,-12 406.38,-12 406.38,-6 412.38,0 418.38,0 418.38,0 580.67,0 580.67,0 586.67,0 592.67,-6 592.67,-12 592.67,-12 592.67,-32.4 592.67,-32.4 592.67,-38.4 586.67,-44.4 580.67,-44.4"/>
<text xml:space="preserve" text-anchor="middle" x="499.52" y="-26.75" font-family="Microsoft YaHei" font-size="11.00" fill="#333333">错误传播 · 相互牵连</text>
<text xml:space="preserve" text-anchor="middle" x="499.52" y="-11.75" font-family="Microsoft YaHei" font-size="11.00" fill="#333333">数量管理与信任边界是核心问题</text>
</g>
<!-- hub&#45;&gt;note -->
<g id="edge6" class="edge">
<title>hub&#45;&gt;note</title>
<path fill="none" stroke="#e8833a" stroke-width="1.2" stroke-dasharray="5,2" d="M303.79,-110C380.79,-110 499.52,-110 499.52,-110 499.52,-110 499.52,-54.63 499.52,-54.63"/>
<polygon fill="#e8833a" stroke="#e8833a" stroke-width="1.2" points="502.33,-54.63 499.53,-46.63 496.73,-54.63 502.33,-54.63"/>
</g>
<!-- a1 -->
<g id="node2" class="node">
<title>a1</title>
<path fill="#dce9f7" stroke="#2c5f8a" stroke-width="1.3" d="M206.05,-219.2C206.05,-219.2 145,-219.2 145,-219.2 139,-219.2 133,-213.2 133,-207.2 133,-207.2 133,-186.8 133,-186.8 133,-180.8 139,-174.8 145,-174.8 145,-174.8 206.05,-174.8 206.05,-174.8 212.05,-174.8 218.05,-180.8 218.05,-186.8 218.05,-186.8 218.05,-207.2 218.05,-207.2 218.05,-213.2 212.05,-219.2 206.05,-219.2"/>
<text xml:space="preserve" text-anchor="middle" x="175.53" y="-201.55" font-family="Microsoft YaHei" font-size="11.00" fill="#333333">需求智能体</text>
<text xml:space="preserve" text-anchor="middle" x="175.53" y="-186.55" font-family="Microsoft YaHei" font-size="11.00" fill="#333333">规格与验收</text>
</g>
<!-- a1&#45;&gt;hub -->
<g id="edge1" class="edge">
<title>a1&#45;&gt;hub</title>
<path fill="none" stroke="#9aa7b4" stroke-width="1.2" d="M196.84,-174.49C196.84,-174.49 196.84,-142.15 196.84,-142.15"/>
<polygon fill="#9aa7b4" stroke="#9aa7b4" stroke-width="1.2" points="199.64,-142.15 196.84,-134.15 194.04,-142.15 199.64,-142.15"/>
</g>
<!-- a2 -->
<g id="node3" class="node">
<title>a2</title>
<path fill="#dce9f7" stroke="#2c5f8a" stroke-width="1.3" d="M334.05,-219.2C334.05,-219.2 273,-219.2 273,-219.2 267,-219.2 261,-213.2 261,-207.2 261,-207.2 261,-186.8 261,-186.8 261,-180.8 267,-174.8 273,-174.8 273,-174.8 334.05,-174.8 334.05,-174.8 340.05,-174.8 346.05,-180.8 346.05,-186.8 346.05,-186.8 346.05,-207.2 346.05,-207.2 346.05,-213.2 340.05,-219.2 334.05,-219.2"/>
<text xml:space="preserve" text-anchor="middle" x="303.52" y="-201.55" font-family="Microsoft YaHei" font-size="11.00" fill="#333333">开发智能体</text>
<text xml:space="preserve" text-anchor="middle" x="303.52" y="-186.55" font-family="Microsoft YaHei" font-size="11.00" fill="#333333">实现与重构</text>
</g>
<!-- a2&#45;&gt;hub -->
<g id="edge2" class="edge">
<title>a2&#45;&gt;hub</title>
<path fill="none" stroke="#9aa7b4" stroke-width="1.2" d="M282.21,-174.49C282.21,-174.49 282.21,-142.15 282.21,-142.15"/>
<polygon fill="#9aa7b4" stroke="#9aa7b4" stroke-width="1.2" points="285.01,-142.15 282.21,-134.15 279.41,-142.15 285.01,-142.15"/>
</g>
</g>
</svg>
