<?xml version="1.0" encoding="UTF-8" standalone="no"?>
<!DOCTYPE svg PUBLIC "-//W3C//DTD SVG 1.1//EN"
 "http://www.w3.org/Graphics/SVG/1.1/DTD/svg11.dtd">
<!-- Generated by graphviz version 15.1.0 (20260618.0150)
 -->
<!-- Title: G Pages: 1 -->
<svg width="574pt" height="297pt"
 viewBox="0.00 0.00 574.00 297.00" xmlns="http://www.w3.org/2000/svg" xmlns:xlink="http://www.w3.org/1999/xlink">
<g id="graph0" class="graph" transform="scale(1 1) rotate(0) translate(21.6 275)">
<title>G</title>
<polygon fill="white" stroke="none" points="-21.6,21.6 -21.6,-275 552.85,-275 552.85,21.6 -21.6,21.6"/>
<text xml:space="preserve" text-anchor="middle" x="265.62" y="-235.15" font-family="Microsoft YaHei" font-size="15.00" fill="#2c5f8a">控制流图（CFG）示例</text>
<!-- n1 -->
<g id="node1" class="node">
<title>n1</title>
<ellipse fill="#2c5f8a" stroke="#2c5f8a" stroke-width="1.3" cx="25.2" cy="-153.2" rx="25.2" ry="25.2"/>
<text xml:space="preserve" text-anchor="middle" x="25.2" y="-150.25" font-family="Microsoft YaHei" font-size="11.00" fill="white">入口</text>
</g>
<!-- n2 -->
<g id="node2" class="node">
<title>n2</title>
<polygon fill="#fff3d6" stroke="#e8833a" stroke-width="1.3" points="138.6,-171.2 113.4,-153.2 138.6,-135.2 163.8,-153.2 138.6,-171.2"/>
<text xml:space="preserve" text-anchor="middle" x="138.6" y="-150.25" font-family="Microsoft YaHei" font-size="11.00" fill="#333333">2</text>
</g>
<!-- n1&#45;&gt;n2 -->
<g id="edge1" class="edge">
<title>n1&#45;&gt;n2</title>
<path fill="none" stroke="#9aa7b4" stroke-width="1.2" d="M50.93,-153.2C50.93,-153.2 102.76,-153.2 102.76,-153.2"/>
<polygon fill="#9aa7b4" stroke="#9aa7b4" stroke-width="1.2" points="102.76,-156 110.76,-153.2 102.76,-150.4 102.76,-156"/>
</g>
<!-- n3 -->
<g id="node3" class="node">
<title>n3</title>
<ellipse fill="#dce9f7" stroke="#2c5f8a" stroke-width="1.3" cx="271.25" cy="-199.2" rx="25.2" ry="25.2"/>
<text xml:space="preserve" text-anchor="middle" x="271.25" y="-196.25" font-family="Microsoft YaHei" font-size="11.00" fill="#333333">3</text>
</g>
<!-- n2&#45;&gt;n3 -->
<g id="edge2" class="edge">
<title>n2&#45;&gt;n3</title>
<path fill="none" stroke="#9aa7b4" stroke-width="1.2" d="M151.86,-162.2C183.01,-162.2 258.25,-162.2 258.25,-162.2 258.25,-162.2 258.25,-167.43 258.25,-167.43"/>
<polygon fill="#9aa7b4" stroke="#9aa7b4" stroke-width="1.2" points="255.45,-167.43 258.25,-175.43 261.05,-167.43 255.45,-167.43"/>
<text xml:space="preserve" text-anchor="middle" x="204.93" y="-195.95" font-family="Microsoft YaHei" font-size="10.00" fill="#333333">C1</text>
</g>
<!-- n4 -->
<g id="node4" class="node">
<title>n4</title>
<ellipse fill="#dce9f7" stroke="#2c5f8a" stroke-width="1.3" cx="271.25" cy="-109.2" rx="25.2" ry="25.2"/>
<text xml:space="preserve" text-anchor="middle" x="271.25" y="-106.25" font-family="Microsoft YaHei" font-size="11.00" fill="#333333">4</text>
</g>
<!-- n2&#45;&gt;n4 -->
<g id="edge3" class="edge">
<title>n2&#45;&gt;n4</title>
<path fill="none" stroke="#9aa7b4" stroke-width="1.2" d="M152.3,-144.2C186.19,-144.2 271.25,-144.2 271.25,-144.2 271.25,-144.2 271.25,-143.28 271.25,-143.28"/>
<polygon fill="#9aa7b4" stroke="#9aa7b4" stroke-width="1.2" points="274.05,-144.82 271.25,-136.82 268.45,-144.82 274.05,-144.82"/>
<text xml:space="preserve" text-anchor="middle" x="204.93" y="-128.95" font-family="Microsoft YaHei" font-size="10.00" fill="#333333">¬C1</text>
</g>
<!-- n5 -->
<g id="node5" class="node">
<title>n5</title>
<ellipse fill="#dce9f7" stroke="#2c5f8a" stroke-width="1.3" cx="384.65" cy="-159.2" rx="25.2" ry="25.2"/>
<text xml:space="preserve" text-anchor="middle" x="384.65" y="-156.25" font-family="Microsoft YaHei" font-size="11.00" fill="#333333">5</text>
</g>
<!-- n3&#45;&gt;n5 -->
<g id="edge4" class="edge">
<title>n3&#45;&gt;n5</title>
<path fill="none" stroke="#9aa7b4" stroke-width="1.2" d="M287.5,-179.2C287.5,-179.2 358.62,-179.2 358.62,-179.2"/>
<polygon fill="#9aa7b4" stroke="#9aa7b4" stroke-width="1.2" points="358.62,-182 366.62,-179.2 358.62,-176.4 358.62,-182"/>
</g>
<!-- n4&#45;&gt;n5 -->
<g id="edge5" class="edge">
<title>n4&#45;&gt;n5</title>
<path fill="none" stroke="#9aa7b4" stroke-width="1.2" d="M284.25,-131.46C284.25,-142.37 284.25,-153.2 284.25,-153.2 284.25,-153.2 349.76,-153.2 349.76,-153.2"/>
<polygon fill="#9aa7b4" stroke="#9aa7b4" stroke-width="1.2" points="349.76,-156 357.76,-153.2 349.76,-150.4 349.76,-156"/>
</g>
<!-- n6 -->
<g id="node6" class="node">
<title>n6</title>
<ellipse fill="#dce9f7" stroke="#2c5f8a" stroke-width="1.3" cx="384.65" cy="-29.2" rx="25.2" ry="25.2"/>
<text xml:space="preserve" text-anchor="middle" x="384.65" y="-26.25" font-family="Microsoft YaHei" font-size="11.00" fill="#333333">6</text>
</g>
<!-- n5&#45;&gt;n6 -->
<g id="edge6" class="edge">
<title>n5&#45;&gt;n6</title>
<path fill="none" stroke="#9aa7b4" stroke-width="1.2" d="M384.25,-133.52C384.25,-133.52 384.25,-64.65 384.25,-64.65"/>
<polygon fill="#9aa7b4" stroke="#9aa7b4" stroke-width="1.2" points="387.05,-64.65 384.25,-56.65 381.45,-64.65 387.05,-64.65"/>
</g>
<!-- n7 -->
<g id="node7" class="node">
<title>n7</title>
<ellipse fill="#2c5f8a" stroke="#2c5f8a" stroke-width="1.3" cx="502.05" cy="-29.2" rx="25.2" ry="25.2"/>
<ellipse fill="none" stroke="#2c5f8a" stroke-width="1.3" cx="502.05" cy="-29.2" rx="29.2" ry="29.2"/>
<text xml:space="preserve" text-anchor="middle" x="502.05" y="-26.25" font-family="Microsoft YaHei" font-size="11.00" fill="white">出口</text>
</g>
<!-- n6&#45;&gt;n7 -->
<g id="edge7" class="edge">
<title>n6&#45;&gt;n7</title>
<path fill="none" stroke="#9aa7b4" stroke-width="1.2" d="M410.41,-29.2C410.41,-29.2 462.38,-29.2 462.38,-29.2"/>
<polygon fill="#9aa7b4" stroke="#9aa7b4" stroke-width="1.2" points="462.38,-32 470.38,-29.2 462.38,-26.4 462.38,-32"/>
</g>
</g>
</svg>
